# xmcd
#
# Track frame offsets: 
#        182
#        26895
#        44325
#        72925
#        85500
#        113287
#        132392
#        149555
#        166507
#        189662
#
# Disc length: 2901 seconds
#
# Revision: 7
# Processed by: cddbd v1.5.2PL0 Copyright (c) Steve Scherf et al.
# Submitted via: ExactAudioCopy v0.99pb4
#
DISCID=810b530a
DTITLE=Nick Cave and the Bad Seeds - Let Love In
DYEAR=1996
DGENRE=Rock
TTITLE0=Do You Love Me?
TTITLE1=Nobody's Baby Now
TTITLE2=Loverman
TTITLE3=Jangling Jack
TTITLE4=Red Right Hand
TTITLE5=I Let Love In
TTITLE6=Thirsty Dog
TTITLE7=Ain't Gonna Rain Anymore
TTITLE8=Lay Me Low
TTITLE9=Do You Love Me? (Part 2)
EXTD=
EXTT0=
EXTT1=
EXTT2=
EXTT3=
EXTT4=
EXTT5=
EXTT6=
EXTT7=
EXTT8=
EXTT9=
PLAYORDER=
